<?xml version="1.0" encoding="UTF-8"?>
<svg version="1.1" xmlns="http://www.w3.org/2000/svg" width="1000" height="1001">
<path d="M0 0 C2.11851501 -0.38095093 2.11851501 -0.38095093 4.76928711 -0.38818359 C6.2560923 -0.40236832 6.2560923 -0.40236832 7.77293396 -0.4168396 C9.38386681 -0.40773056 9.38386681 -0.40773056 11.02734375 -0.3984375 C12.67712975 -0.40274277 12.67712975 -0.40274277 14.36024475 -0.40713501 C16.68963128 -0.40917935 19.01903484 -0.40362375 21.34838867 -0.39111328 C24.91949813 -0.37508082 28.48947306 -0.39094236 32.06054688 -0.41015625 C34.32031501 -0.40817358 36.58008243 -0.40432943 38.83984375 -0.3984375 C39.91177475 -0.40451019 40.98370575 -0.41058289 42.08811951 -0.4168396 C43.08247513 -0.40738312 44.07683075 -0.39792664 45.10131836 -0.38818359 C45.97686874 -0.38579681 46.85241913 -0.38341003 47.75450134 -0.38095093 C50.53526723 0.09080858 51.2605878 0.81760005 53 3 C53.37719816 4.92611593 53.37719816 4.92611593 53.38031673 7.15299129 C53.38875668 8.00296277 53.39719662 8.85293424 53.40589231 9.72866243 C53.39988227 10.66269586 53.39387222 11.5967293 53.38768005 12.55906677 C53.39575836 14.04713312 53.39575836 14.04713312 53.40399987 15.56526142 C53.41836041 18.90487885 53.41115572 22.24410442 53.40405273 25.58374023 C53.40975206 27.97175416 53.41671461 30.35976535 53.42485046 32.74777222 C53.44097446 38.57009266 53.44287269 44.39228926 53.43763756 50.21462732 C53.43359974 54.94613113 53.43503479 59.67760302 53.44038582 64.4091053 C53.44113424 65.08195672 53.44188266 65.75480814 53.44265376 66.448049 C53.44418521 67.81485248 53.44572355 69.18165595 53.44726873 70.54845942 C53.46100397 83.37274443 53.45554897 96.19696847 53.44408352 109.0212521 C53.43415055 120.75839855 53.44709103 132.49538736 53.47101771 144.23250949 C53.49538953 156.2785724 53.50502129 168.32456184 53.49836498 180.37064892 C53.49486841 187.135868 53.49713351 193.90096583 53.51461601 200.66616631 C53.5300344 207.02651511 53.52618626 213.38656199 53.50731087 219.74689865 C53.50361083 222.08504108 53.5067743 224.42320562 53.51719666 226.76132774 C53.53031129 229.94588773 53.51894326 233.12943409 53.50120544 236.31394958 C53.51081045 237.2457523 53.52041546 238.17755501 53.53031152 239.13759416 C53.45846149 245.37929335 53.45846149 245.37929335 51.0990839 248.57363224 C48.72240845 250.18862878 47.51223764 250.50536969 44.66210938 250.51757812 C43.81442993 250.53018677 42.96675049 250.54279541 42.09338379 250.55578613 C41.18600464 250.54768921 40.27862549 250.53959229 39.34375 250.53125 C38.40446655 250.5350769 37.46518311 250.53890381 36.49743652 250.54284668 C34.51374234 250.54556576 32.5300123 250.53820484 30.54638672 250.52148438 C27.51057984 250.50007461 24.47713954 250.52128607 21.44140625 250.546875 C19.51301561 250.54423172 17.58462644 250.53910675 15.65625 250.53125 C14.74887085 250.53934692 13.8414917 250.54744385 12.90661621 250.55578613 C6.66706082 250.46297708 6.66706082 250.46297708 3.42089844 248.20996094 C1.27240326 244.86834954 1.57420892 241.57683656 1.75 237.75 C1.76804687 237.00492188 1.78609375 236.25984375 1.8046875 235.4921875 C1.85164351 233.66090299 1.92338348 231.83028351 2 230 C1.25363281 230.74636719 0.50726563 231.49273437 -0.26171875 232.26171875 C-1.16535156 233.16535156 -2.06898438 234.06898438 -3 235 C-3.93779297 235.96873047 -3.93779297 235.96873047 -4.89453125 236.95703125 C-18.29145819 249.91739846 -35.71246065 254.52209374 -53.96313477 254.35205078 C-71.43711756 253.84240027 -87.52045049 248.1232818 -101 237 C-101.76699219 236.40703125 -102.53398437 235.8140625 -103.32421875 235.203125 C-117.45489676 223.66183825 -125.60924334 206.39575974 -130 189 C-130.20302734 190.69189453 -130.20302734 190.69189453 -130.41015625 192.41796875 C-133.83851276 218.434297 -143.96329327 241.31497248 -160 262 C-160.72832031 262.93972656 -161.45664063 263.87945313 -162.20703125 264.84765625 C-182.18199065 289.86134415 -206.80259983 311.22084559 -235 326.5 C-235.898396 326.98980347 -235.898396 326.98980347 -236.81494141 327.48950195 C-240.81361351 329.58715685 -244.65252813 330.89095105 -249 332 C-249.10957031 332.63164063 -249.21914062 333.26328125 -249.33203125 333.9140625 C-250.25950274 339.14711302 -251.30001466 344.32239829 -252.5 349.5 C-256.36324002 367.53502358 -259.51699634 389.6633936 -250.0625 406.4375 C-246.80678153 410.48248355 -243.95953438 412.59896532 -238.72265625 413.30859375 C-228.63032352 413.79764952 -220.9668959 409.73813259 -213.3125 403.375 C-201.24497522 391.85105742 -193.02459252 376.66300956 -186.875 361.3125 C-186.41359619 360.18110596 -186.41359619 360.18110596 -185.94287109 359.02685547 C-184.41850256 355.03248705 -183.34752418 352.1521956 -185 348 C-186.73372974 345.28570993 -186.73372974 345.28570993 -188.875 342.625 C-195.1360128 334.29191678 -197.9290381 326.4848586 -197 316 C-194.83548062 305.43205246 -189.68959427 298.33878616 -181 292 C-174.49007298 288.62738721 -167.54316922 287.82756923 -160.45703125 289.65625 C-151.14102737 292.92601233 -146.30401474 298.56619512 -142.04296875 307.27734375 C-139.27344869 314.50713957 -138.73012404 320.83271841 -138.875 328.5 C-138.88402344 329.4178125 -138.89304688 330.335625 -138.90234375 331.28125 C-138.92567568 333.52111556 -138.95840765 335.76041183 -139 338 C-136.36 338.33 -133.72 338.66 -131 339 C-130.55011719 337.98164062 -130.10023438 336.96328125 -129.63671875 335.9140625 C-122.61664587 320.34158825 -114.34182965 305.83861386 -103 293 C-102.36835938 292.22527344 -101.73671875 291.45054687 -101.0859375 290.65234375 C-90.9299226 278.4693053 -76.31938022 268.65146286 -60.38671875 266.515625 C-48.6792204 265.67495986 -39.00480166 266.37497167 -29 273 C-22.72935973 278.49130639 -18.56459219 285.79327114 -17 294 C-15.79521894 313.27649704 -21.47527165 328.29231246 -34 343 C-34.58136719 343.72574219 -35.16273438 344.45148438 -35.76171875 345.19921875 C-49.36602376 361.5414971 -67.86347088 370.19057209 -87.76171875 376.30761719 C-90.52264848 377.16167442 -93.26291519 378.07263245 -96 379 C-97.14753363 394.65359677 -97.14753363 394.65359677 -92 409 C-88.17108712 412.82891288 -84.85274849 414.14739899 -79.5 414.3125 C-63.61370134 414.03661638 -51.21608299 402.79034861 -40.60888672 392.09277344 C-34.26336766 385.47236419 -28.8037985 378.23230779 -23.38964844 370.84716797 C-21.35681607 368.14505804 -19.19234512 365.57379711 -17 363 C-12.49563677 364.49022858 -9.10211907 367.01508226 -5.4375 369.9375 C-4.31129187 370.82173427 -3.18499199 371.70585168 -2.05859375 372.58984375 C-0.54458984 373.78287109 -0.54458984 373.78287109 1 375 C2.33121227 376.00282186 3.66409628 377.00343638 5 378 C5.0093457 377.24605957 5.01869141 376.49211914 5.02832031 375.71533203 C5.53069016 343.36172867 10.50870467 317.53029949 34.15234375 293.84375 C51.76290989 277.28408563 72.62937999 274.15752663 95.87548828 274.82519531 C113.23980748 275.79666371 126.67513961 284.44960362 138 297 C138.10957031 295.95199219 138.21914063 294.90398437 138.33203125 293.82421875 C138.49150574 292.44523349 138.65169966 291.06633129 138.8125 289.6875 C138.91788086 288.65206055 138.91788086 288.65206055 139.02539062 287.59570312 C139.64360985 282.47684793 139.64360985 282.47684793 141.26916504 280.30186462 C143.462036 278.65247505 144.69628106 278.61475129 147.42382812 278.59594727 C148.76036438 278.57692101 148.76036438 278.57692101 150.12390137 278.55751038 C151.56303894 278.56191383 151.56303894 278.56191383 153.03125 278.56640625 C154.51244324 278.55854347 154.51244324 278.55854347 156.02355957 278.55052185 C158.1115627 278.54409764 160.19960199 278.54544379 162.28759766 278.55395508 C165.48795762 278.56246797 168.6865351 278.53370391 171.88671875 278.50195312 C173.91406196 278.50034117 175.94140835 278.50091854 177.96875 278.50390625 C178.92817505 278.49267227 179.8876001 278.48143829 180.87609863 278.46986389 C181.7671228 278.47924484 182.65814697 278.48862579 183.57617188 278.49829102 C184.35988159 278.49845718 185.14359131 278.49862335 185.9510498 278.49879456 C188 279 188 279 189.60424995 280.6161871 C191.45266293 283.77310671 191.37748898 285.9903136 191.38095093 289.64221191 C191.3856309 290.30842638 191.39031087 290.97464086 191.39513266 291.66104364 C191.407093 293.8920705 191.39762185 296.12248427 191.38818359 298.35351562 C191.39224885 299.95351012 191.39759047 301.5535018 191.40411377 303.15348816 C191.41779869 307.49849254 191.4124839 311.8432834 191.40297651 316.18829155 C191.395386 320.73348444 191.40242383 325.27865894 191.40713501 329.82385254 C191.41259434 337.45698329 191.40539631 345.09002699 191.39111328 352.72314453 C191.37478642 361.55051795 191.3800748 370.37768351 191.3965925 379.2050519 C191.41020232 386.78137127 191.41212949 394.35762803 191.40427649 401.93395567 C191.3995972 406.46014024 191.39898214 410.98622708 191.40888596 415.5124054 C191.41754603 419.76747185 191.41155138 424.02227006 191.39420319 428.27730751 C191.3902332 429.83980679 191.39138115 431.40232861 191.39799118 432.96481895 C191.40617687 435.09611439 191.3959223 437.22654773 191.38095093 439.35778809 C191.37981985 440.55092369 191.37868877 441.7440593 191.37752342 442.97335052 C190.96343471 446.2931482 190.35848689 447.66466121 188 450 C184.04924961 451.3169168 180.25300638 451.18237282 176.1328125 451.203125 C175.26107391 451.20882507 174.38933533 451.21452515 173.49118042 451.22039795 C171.64696464 451.22984183 169.80273203 451.2363795 167.95849609 451.24023438 C165.14260314 451.24993933 162.32744041 451.28096786 159.51171875 451.3125 C157.71875433 451.31903043 155.92578469 451.32428075 154.1328125 451.328125 C152.87321213 451.3466452 152.87321213 451.3466452 151.58816528 451.36553955 C146.95961622 451.34797345 143.66418267 451.16536041 140 448 C139.29698793 445.11972692 138.898672 442.72565586 138.6875 439.8125 C138.61466797 439.06291016 138.54183594 438.31332031 138.46679688 437.54101562 C138.29050909 435.69587013 138.14248587 433.84806305 138 432 C137.32195312 432.72445313 136.64390625 433.44890625 135.9453125 434.1953125 C123.11075111 447.65123888 108.51268517 453.95914887 89.97265625 455.203125 C76.34746014 455.42259125 63.2146313 453.19167084 51 447 C50.00484375 446.49597656 49.0096875 445.99195313 47.984375 445.47265625 C27.68826263 434.41387707 15.58656147 415.44327943 8.7890625 393.84375 C7.79040415 390.24462487 6.8913051 386.62722424 6 383 C5.46632813 383.85980469 4.93265625 384.71960938 4.3828125 385.60546875 C-13.97375478 414.87155906 -39.6993824 443.90808527 -74.578125 452.4765625 C-88.15704546 455.41136144 -102.25399146 454.36622838 -114.625 447.5703125 C-128.16145853 438.62021985 -136.12935762 425.73331538 -139.41235352 409.95654297 C-141.57820388 398.35160221 -141.87882943 386.6669247 -140 375 C-142.64 374.67 -145.28 374.34 -148 374 C-148.44988281 375.07894531 -148.89976562 376.15789062 -149.36328125 377.26953125 C-156.2441584 393.43913688 -164.1716847 408.87630367 -176 422 C-177.09248047 423.28777344 -177.09248047 423.28777344 -178.20703125 424.6015625 C-192.14066443 440.75579222 -210.65827669 451.59905613 -232 454 C-248.85832658 455.05238053 -264.90520166 451.54774046 -278.3125 440.875 C-291.58910377 428.08273585 -297.92476652 410.57091508 -298.3359375 392.3515625 C-298.3777433 389.44239581 -298.38381063 386.53442568 -298.375 383.625 C-298.37345917 382.85378815 -298.37191833 382.08257629 -298.37033081 381.28799438 C-298.19074616 343.24296134 -287.92728756 305.901866 -276 270 C-275.63938477 268.88737793 -275.27876953 267.77475586 -274.90722656 266.62841797 C-269.68610133 250.53112125 -263.4595043 235.1890359 -256 220 C-255.54866699 219.0728418 -255.09733398 218.14568359 -254.63232422 217.19042969 C-240.28484421 187.95776231 -220.53066269 159.58318187 -188.875 147.91015625 C-175.82341077 143.7783352 -161.56361178 145.0648843 -149.44140625 151.3203125 C-141.88098747 155.98660807 -136.78746216 162.01684622 -133 170 C-132.96261719 168.8140625 -132.92523438 167.628125 -132.88671875 166.40625 C-131.79963299 137.59997481 -124.29771523 112.26132266 -102.8125 91.8125 C-94.23992718 84.52656114 -83.7982695 79.08058739 -73 76 C-72.22398437 75.77570313 -71.44796875 75.55140625 -70.6484375 75.3203125 C-51.51567165 70.88636994 -31.16591884 73.53254723 -14.0625 82.92578125 C-11.43684501 84.70412666 -9.17605659 86.53458582 -6.80859375 88.62963867 C-6.09372803 89.26060959 -5.3788623 89.89158051 -4.64233398 90.54167175 C-4.10036377 91.02292007 -3.55839355 91.5041684 -3 92 C-2.98786972 90.33749458 -2.98786972 90.33749458 -2.97549438 88.6414032 C-2.89808966 78.20848765 -2.81036481 67.77570343 -2.71247292 57.3429594 C-2.66247623 51.97907293 -2.61614649 46.61520649 -2.578125 41.2512207 C-2.54131482 36.07698797 -2.49496652 30.90292138 -2.44193649 25.72883034 C-2.42336983 23.7524589 -2.40827032 21.77605182 -2.39665604 19.7996273 C-2.37983245 17.03641025 -2.35080695 14.27357561 -2.31884766 11.51049805 C-2.31560738 10.2783532 -2.31560738 10.2783532 -2.31230164 9.02131653 C-2.25515575 5.1667914 -2.18766454 3.28149682 0 0 Z M-69.875 135.875 C-78.78098667 146.87651294 -80.19868986 159.29630779 -79 173 C-76.99059255 183.85320672 -71.22401463 192.45973129 -62.1484375 198.71875 C-52.25399092 204.61943814 -40.82368729 206.63376092 -29.53515625 203.84375 C-18.82754024 200.28004421 -10.65109742 195.17440644 -5.4375 184.9296875 C0.03377945 172.27735377 1.02216506 159.04956142 -4 146 C-8.57069508 135.56943943 -15.42202138 129.16609619 -26 125 C-41.53640019 119.90957536 -58.67717637 123.74799526 -69.875 135.875 Z M-178.046875 183.8671875 C-181.83027965 186.0615622 -184.88718591 188.95328814 -188 192 C-188.62648437 192.60199219 -189.25296875 193.20398438 -189.8984375 193.82421875 C-200.45405722 204.78913801 -207.52229251 219.29788728 -214.00976562 232.93408203 C-215.03324826 235.06936557 -216.0848989 237.18908619 -217.140625 239.30859375 C-221.7732267 248.7142407 -225.82523813 258.29034347 -229.625 268.0625 C-230.07536621 269.21153809 -230.52573242 270.36057617 -230.98974609 271.54443359 C-231.39789551 272.61387207 -231.80604492 273.68331055 -232.2265625 274.78515625 C-232.77691162 276.22193726 -232.77691162 276.22193726 -233.33837891 277.68774414 C-234.28178432 279.999775 -234.28178432 279.999775 -233 282 C-214.05717478 264.75114038 -214.05717478 264.75114038 -197.07421875 245.62890625 C-195.67618089 243.85700516 -194.23986485 242.11472877 -192.76953125 240.40234375 C-180.82815691 226.44676168 -168.73642597 207.34159012 -169.04296875 188.3359375 C-169.29727395 185.95817823 -169.29727395 185.95817823 -170 183 C-173.47115129 181.84294957 -174.80639894 182.35587304 -178.046875 183.8671875 Z M-67.05078125 309.875 C-73.53383914 316.73482879 -80.96891396 326.63862102 -83 336 C-70.76350638 330.81901653 -59.71266608 321.45568468 -54.0625 309.1875 C-52.78918149 305.92753114 -52.78918149 305.92753114 -53 302 C-58.62416193 302 -63.03251239 306.20115419 -67.05078125 309.875 Z M68.734375 335.2265625 C60.46383168 344.87552971 57.67356642 355.39150316 58 368 C59.40946249 380.67160986 63.80968074 390.10152782 73.625 398.30859375 C83.41989638 405.28423541 94.33016386 406.04534363 106 405 C115.60306869 402.83986916 123.8760242 397.72651152 130 390 C137.39684275 377.30857508 138.57104762 364.27180028 135.03125 350.2109375 C131.89340728 340.44083629 125.57620501 332.68909061 116.59765625 327.65234375 C100.80493415 320.32094697 81.2892794 322.88812196 68.734375 335.2265625 Z " fill="#EA4C27" transform="translate(373,267)"/>
<path d="M0 0 C6.26636732 5.01119208 11.42665806 11.20610218 15.57421875 18.05859375 C15.98671875 17.50171875 16.39921875 16.94484375 16.82421875 16.37109375 C18.69733233 13.89590795 20.62095208 11.47100982 22.57421875 9.05859375 C23.12980469 8.36636719 23.68539062 7.67414062 24.2578125 6.9609375 C28.4076442 2.31201691 33.01482364 -0.52879069 38.51171875 -3.31640625 C39.167771 -3.650354 39.82382324 -3.98430176 40.49975586 -4.32836914 C55.23537605 -11.40226758 75.36185349 -11.50669288 90.671875 -6.19921875 C105.93736001 0.41650961 115.99534737 10.95731347 122.32421875 26.30859375 C127.93422874 42.45060362 128.0486803 57.84794272 128.04296875 74.79296875 C128.05007933 77.36509363 128.05777962 79.93721694 128.06604004 82.50933838 C128.07941518 87.86825654 128.08126523 93.22701115 128.07519531 98.5859375 C128.06851261 104.77746491 128.09162018 110.96840297 128.12850904 117.15981078 C128.1628493 123.14158358 128.16954958 129.12304118 128.16542053 135.10492706 C128.16711627 137.64235456 128.17680208 140.17978957 128.19456482 142.71715546 C128.21659306 146.24779657 128.20713888 149.77698293 128.18945312 153.30761719 C128.20271637 154.35795135 128.21597961 155.40828552 128.22964478 156.490448 C128.1990291 159.10845996 128.12876604 161.50033305 127.57421875 164.05859375 C124.62397878 166.86780436 122.04740256 167.43413837 118.046875 167.44677734 C117.18247803 167.45623383 116.31808105 167.46569031 115.42749023 167.47543335 C114.50653564 167.46936066 113.58558105 167.46328796 112.63671875 167.45703125 C111.67902588 167.45990143 110.72133301 167.46277161 109.73461914 167.46572876 C107.71402392 167.46776615 105.69340883 167.46225908 103.67285156 167.44970703 C100.58483666 167.43364896 97.49813057 167.44956698 94.41015625 167.46875 C92.44400754 167.46676751 90.47785963 167.46292372 88.51171875 167.45703125 C87.59076416 167.46310394 86.66980957 167.46917664 85.72094727 167.47543335 C84.42435181 167.46124863 84.42435181 167.46124863 83.1015625 167.44677734 C82.34609131 167.44439056 81.59062012 167.44200378 80.81225586 167.43954468 C77.60446635 166.89352585 76.0093207 166.27541269 73.57421875 164.05859375 C72.81537567 160.99152192 72.91558414 157.96575359 72.96240234 154.82055664 C72.95673752 153.87379059 72.95107269 152.92702454 72.94523621 151.9515686 C72.93169743 148.8110638 72.9527165 145.67170518 72.97265625 142.53125 C72.9671562 140.34467275 72.95903172 138.15810066 72.94839478 135.97154236 C72.9254536 130.20071726 72.92974364 124.43026992 72.94219971 118.65942383 C72.96045874 109.45496425 72.95037629 100.2507307 72.91633987 91.04632378 C72.91027221 87.8424801 72.92345805 84.63912344 72.93832397 81.43531799 C73.22720341 62.85652693 73.22720341 62.85652693 65.18359375 46.61328125 C60.63185466 42.21621291 55.39389962 41.27549228 49.32421875 40.80859375 C41.82492356 41.30854676 35.84600553 43.54160759 30.57421875 49.05859375 C24.94904921 57.37567611 24.27054378 67.28823756 24.3347168 77.05053711 C24.33270264 77.99327484 24.33068848 78.93601257 24.32861328 79.90731812 C24.32509356 81.93427679 24.3258027 83.96124651 24.33038902 85.98820305 C24.3360193 89.19502709 24.32676615 92.40149453 24.31318665 95.60829163 C24.27619052 104.71845281 24.25757775 113.82848633 24.26879883 122.9387207 C24.27463616 128.52658271 24.25646929 134.11393462 24.22290993 139.70169258 C24.21494351 141.82879779 24.21624963 143.95595839 24.22693443 146.08305168 C24.24119681 149.04674245 24.22506319 152.00881191 24.2019043 154.97241211 C24.21367203 155.85293747 24.22543976 156.73346283 24.23756409 157.64067078 C24.20297352 159.88914205 24.1252852 161.87883631 23.57421875 164.05859375 C20.60402585 166.74333413 18.08288579 167.43427348 14.13867188 167.4309082 C13.29429565 167.43713699 12.44991943 167.44336578 11.57995605 167.44978333 C10.68087524 167.44057358 9.78179443 167.43136383 8.85546875 167.421875 C7.45222351 167.42262276 7.45222351 167.42262276 6.02062988 167.42338562 C4.04709748 167.42105009 2.07356182 167.41135236 0.10009766 167.39477539 C-2.91531092 167.37117569 -5.92983495 167.37421952 -8.9453125 167.38085938 C-10.86589067 167.37528235 -12.78646513 167.36817232 -14.70703125 167.359375 C-15.60611206 167.36028641 -16.50519287 167.36119781 -17.43151855 167.36213684 C-25.51584013 167.27087437 -25.51584013 167.27087437 -29.42578125 165.05859375 C-31.12711376 161.65592873 -30.57911263 157.77011637 -30.58349609 154.02587891 C-30.58857681 153.08901245 -30.59365753 152.152146 -30.59889221 151.18688965 C-30.60961308 149.1461748 -30.61822649 147.10544807 -30.62501144 145.06471634 C-30.63679493 141.8267224 -30.65625065 138.58886217 -30.6781311 135.35092163 C-30.73973573 126.14203401 -30.79362747 116.93315702 -30.82714844 107.72412109 C-30.84819604 102.09364882 -30.88358965 96.46341535 -30.92790604 90.83308029 C-30.94199752 88.69389043 -30.95077286 86.55465825 -30.95396042 84.41542435 C-30.47180384 62.90561754 -30.47180384 62.90561754 -40.67578125 44.80859375 C-46.10173326 41.3557152 -52.05215509 40.49950374 -58.42578125 41.05859375 C-63.80722072 42.33192226 -68.60710728 43.92169695 -72.42578125 48.05859375 C-77.37908131 56.3610001 -78.5724981 63.13896676 -78.58349609 72.65063477 C-78.58857681 73.61054321 -78.59365753 74.57045166 -78.59889221 75.55944824 C-78.60957479 77.63941607 -78.61820321 79.71939523 -78.62501144 81.79937935 C-78.6368175 85.09002284 -78.65627265 88.38053611 -78.6781311 91.67112732 C-78.73970593 101.02541799 -78.79386949 110.37969324 -78.82714844 119.73413086 C-78.84806168 125.45879964 -78.88333166 131.18322741 -78.92790604 136.90775871 C-78.94208587 139.08984484 -78.95079293 141.27197357 -78.95396042 143.45410347 C-78.95885448 146.50164268 -78.98197167 149.54853827 -79.00927734 152.59594727 C-79.00627121 153.49943405 -79.00326508 154.40292084 -79.00016785 155.33378601 C-79.08122032 161.40760762 -79.08122032 161.40760762 -80.76431274 164.58750916 C-83.54349604 167.04823214 -86.19164821 167.18611919 -89.74194336 167.20385742 C-91.04360695 167.2134272 -91.04360695 167.2134272 -92.37156677 167.22319031 C-93.7731881 167.22485954 -93.7731881 167.22485954 -95.203125 167.2265625 C-96.16601944 167.2298909 -97.12891388 167.2332193 -98.12098694 167.23664856 C-100.15772016 167.24171175 -102.19446167 167.24405707 -104.23120117 167.24389648 C-107.3476324 167.24608277 -110.46370955 167.26424442 -113.58007812 167.28320312 C-115.55859254 167.28613719 -117.53710863 167.2881219 -119.515625 167.2890625 C-120.44801498 167.29624802 -121.38040497 167.30343353 -122.34104919 167.31083679 C-123.21197708 167.30776016 -124.08290497 167.30468353 -124.98022461 167.30151367 C-125.74394882 167.30293869 -126.50767303 167.30436371 -127.29454041 167.30583191 C-129.77007557 167.01865331 -131.34404295 166.4260633 -133.42578125 165.05859375 C-134.5537192 161.67477989 -134.55733359 159.10498512 -134.56622314 155.53663635 C-134.56919427 154.87127631 -134.57216539 154.20591626 -134.57522655 153.52039379 C-134.583912 151.28645102 -134.58542164 149.05256184 -134.58691406 146.81860352 C-134.59154226 145.21875901 -134.59656692 143.6189156 -134.60195923 142.01907349 C-134.61508304 137.66994813 -134.62152788 133.32083821 -134.62596989 128.97169614 C-134.62889998 126.25581164 -134.63300462 123.53993137 -134.63747406 120.824049 C-134.65114748 112.33019771 -134.66081552 103.83635608 -134.66467595 95.34249455 C-134.66915977 85.53056605 -134.68672329 75.71877665 -134.71567655 65.90689045 C-134.73727089 58.32636019 -134.74737899 50.74586912 -134.74871707 43.16530842 C-134.7497665 38.63573578 -134.75570373 34.10629393 -134.77353668 29.57675362 C-134.78997911 25.31762586 -134.79219162 21.05872774 -134.78339767 16.79957962 C-134.7826253 15.23545785 -134.78699631 13.67132393 -134.79685593 12.10723305 C-134.80951761 9.9737247 -134.80373107 7.84103687 -134.79327393 5.70753479 C-134.79474049 4.51310037 -134.79620705 3.31866594 -134.79771805 2.08803654 C-134.39213165 -1.21548382 -133.75734439 -2.60530812 -131.42578125 -4.94140625 C-129.25621033 -5.44261169 -129.25621033 -5.44261169 -126.71069336 -5.44311523 C-125.27922218 -5.45718666 -125.27922218 -5.45718666 -123.8188324 -5.47154236 C-122.79064896 -5.46030838 -121.76246552 -5.4490744 -120.703125 -5.4375 C-119.11849205 -5.43968285 -119.11849205 -5.43968285 -117.50184631 -5.44190979 C-115.26837405 -5.4402494 -113.0348905 -5.4286726 -110.80151367 -5.40795898 C-107.37304386 -5.37898874 -103.94611777 -5.38735061 -100.51757812 -5.40039062 C-98.35025286 -5.39415402 -96.18293251 -5.38576369 -94.015625 -5.375 C-92.98541733 -5.37793564 -91.95520966 -5.38087128 -90.89378357 -5.38389587 C-89.94262161 -5.3712117 -88.99145966 -5.35852753 -88.01147461 -5.34545898 C-87.1722496 -5.340056 -86.3330246 -5.33465302 -85.46836853 -5.3290863 C-84.45728783 -5.13718468 -84.45728783 -5.13718468 -83.42578125 -4.94140625 C-81.51015834 -2.06797188 -81.13367226 -1.16637084 -80.79296875 2.0703125 C-80.70917969 2.82763672 -80.62539063 3.58496094 -80.5390625 4.36523438 C-80.46042969 5.15091797 -80.38179687 5.93660156 -80.30078125 6.74609375 C-80.21441406 7.54337891 -80.12804687 8.34066406 -80.0390625 9.16210938 C-79.82729653 11.12682701 -79.62556652 13.09262171 -79.42578125 15.05859375 C-78.97589844 14.42953125 -78.52601563 13.80046875 -78.0625 13.15234375 C-59.90747354 -11.00584778 -25.20051882 -17.10692153 0 0 Z " fill="#3539AA" transform="translate(705.42578125,550.94140625)"/>
<path d="M0 0 C2.11851501 -0.38095093 2.11851501 -0.38095093 4.76928711 -0.38818359 C6.2560923 -0.40236832 6.2560923 -0.40236832 7.77293396 -0.4168396 C9.38386681 -0.40773056 9.38386681 -0.40773056 11.02734375 -0.3984375 C12.67712975 -0.40274277 12.67712975 -0.40274277 14.36024475 -0.40713501 C16.68963128 -0.40917935 19.01903484 -0.40362375 21.34838867 -0.39111328 C24.91949813 -0.37508082 28.48947306 -0.39094236 32.06054688 -0.41015625 C34.32031501 -0.40817358 36.58008243 -0.40432943 38.83984375 -0.3984375 C39.91177475 -0.40451019 40.98370575 -0.41058289 42.08811951 -0.4168396 C43.08247513 -0.40738312 44.07683075 -0.39792664 45.10131836 -0.38818359 C45.97686874 -0.38579681 46.85241913 -0.38341003 47.75450134 -0.38095093 C50.53526723 0.09080858 51.2605878 0.81760005 53 3 C53.37719816 4.92611593 53.37719816 4.92611593 53.38031673 7.15299129 C53.38875668 8.00296277 53.39719662 8.85293424 53.40589231 9.72866243 C53.39988227 10.66269586 53.39387222 11.5967293 53.38768005 12.55906677 C53.39575836 14.04713312 53.39575836 14.04713312 53.40399987 15.56526142 C53.41836041 18.90487885 53.41115572 22.24410442 53.40405273 25.58374023 C53.40975206 27.97175416 53.41671461 30.35976535 53.42485046 32.74777222 C53.44097446 38.57009266 53.44287269 44.39228926 53.43763756 50.21462732 C53.43359974 54.94613113 53.43503479 59.67760302 53.44038582 64.4091053 C53.44113424 65.08195672 53.44188266 65.75480814 53.44265376 66.448049 C53.44418521 67.81485248 53.44572355 69.18165595 53.44726873 70.54845942 C53.46100397 83.37274443 53.45554897 96.19696847 53.44408352 109.0212521 C53.43415055 120.75839855 53.44709103 132.49538736 53.47101771 144.23250949 C53.49538953 156.2785724 53.50502129 168.32456184 53.49836498 180.37064892 C53.49486841 187.135868 53.49713351 193.90096583 53.51461601 200.66616631 C53.5300344 207.02651511 53.52618626 213.38656199 53.50731087 219.74689865 C53.50361083 222.08504108 53.5067743 224.42320562 53.51719666 226.76132774 C53.53031129 229.94588773 53.51894326 233.12943409 53.50120544 236.31394958 C53.51561295 237.71165365 53.51561295 237.71165365 53.53031152 239.13759416 C53.45846149 245.37929335 53.45846149 245.37929335 51.0990839 248.57363224 C48.72240845 250.18862878 47.51223764 250.50536969 44.66210938 250.51757812 C43.81442993 250.53018677 42.96675049 250.54279541 42.09338379 250.55578613 C41.18600464 250.54768921 40.27862549 250.53959229 39.34375 250.53125 C38.40446655 250.5350769 37.46518311 250.53890381 36.49743652 250.54284668 C34.51374234 250.54556576 32.5300123 250.53820484 30.54638672 250.52148438 C27.51057984 250.50007461 24.47713954 250.52128607 21.44140625 250.546875 C19.51301561 250.54423172 17.58462644 250.53910675 15.65625 250.53125 C14.74887085 250.53934692 13.8414917 250.54744385 12.90661621 250.55578613 C6.66706082 250.46297708 6.66706082 250.46297708 3.42089844 248.20996094 C1.27240326 244.86834954 1.57420892 241.57683656 1.75 237.75 C1.76804687 237.00492188 1.78609375 236.25984375 1.8046875 235.4921875 C1.85164351 233.66090299 1.92338348 231.83028351 2 230 C1.25363281 230.74636719 0.50726563 231.49273437 -0.26171875 232.26171875 C-1.16535156 233.16535156 -2.06898438 234.06898438 -3 235 C-3.62519531 235.64582031 -4.25039063 236.29164063 -4.89453125 236.95703125 C-18.29145819 249.91739846 -35.71246065 254.52209374 -53.96313477 254.35205078 C-71.43711756 253.84240027 -87.52045049 248.1232818 -101 237 C-101.76699219 236.40703125 -102.53398437 235.8140625 -103.32421875 235.203125 C-120.34111095 221.30451147 -129.6886886 198.45594736 -132 177 C-133.40266412 146.24315126 -128.25583011 119.34893393 -107 96 C-97.84889059 86.402495 -85.71807087 79.62827848 -73 76 C-72.22398437 75.77570313 -71.44796875 75.55140625 -70.6484375 75.3203125 C-51.51567165 70.88636994 -31.16591884 73.53254723 -14.0625 82.92578125 C-11.43684501 84.70412666 -9.17605659 86.53458582 -6.80859375 88.62963867 C-6.09372803 89.26060959 -5.3788623 89.89158051 -4.64233398 90.54167175 C-3.82937866 91.26354424 -3.82937866 91.26354424 -3 92 C-2.98786972 90.33749458 -2.98786972 90.33749458 -2.97549438 88.6414032 C-2.89808966 78.20848765 -2.81036481 67.77570343 -2.71247292 57.3429594 C-2.66247623 51.97907293 -2.61614649 46.61520649 -2.578125 41.2512207 C-2.54131482 36.07698797 -2.49496652 30.90292138 -2.44193649 25.72883034 C-2.42336983 23.7524589 -2.40827032 21.77605182 -2.39665604 19.7996273 C-2.37983245 17.03641025 -2.35080695 14.27357561 -2.31884766 11.51049805 C-2.31560738 10.2783532 -2.31560738 10.2783532 -2.31230164 9.02131653 C-2.25515575 5.1667914 -2.18766454 3.28149682 0 0 Z M-69.875 135.875 C-78.78098667 146.87651294 -80.19868986 159.29630779 -79 173 C-76.99059255 183.85320672 -71.22401463 192.45973129 -62.1484375 198.71875 C-52.25399092 204.61943814 -40.82368729 206.63376092 -29.53515625 203.84375 C-18.82754024 200.28004421 -10.65109742 195.17440644 -5.4375 184.9296875 C0.03377945 172.27735377 1.02216506 159.04956142 -4 146 C-8.57069508 135.56943943 -15.42202138 129.16609619 -26 125 C-41.53640019 119.90957536 -58.67717637 123.74799526 -69.875 135.875 Z " fill="#3539AA" transform="translate(373,267)"/>
<path d="M0 0 C1.49164673 -0.00945648 1.49164673 -0.00945648 3.01342773 -0.019104 C4.09052002 -0.01505554 5.1676123 -0.01100708 6.27734375 -0.00683594 C7.37957275 -0.00874939 8.48180176 -0.01066284 9.61743164 -0.01263428 C11.95101143 -0.01399706 14.28459878 -0.01029416 16.61816406 -0.00195312 C20.20004222 0.00874485 23.78141878 -0.00184552 27.36328125 -0.01464844 C29.6263032 -0.01332686 31.88932483 -0.0107645 34.15234375 -0.00683594 C35.76798218 -0.01290863 35.76798218 -0.01290863 37.41625977 -0.019104 C38.41069092 -0.01279968 39.40512207 -0.00649536 40.4296875 0 C41.3074585 0.00159119 42.18522949 0.00318237 43.08959961 0.00482178 C45.21484375 0.25878906 45.21484375 0.25878906 47.21484375 2.25878906 C47.47655678 4.66008186 47.47655678 4.66008186 47.49331665 7.73831177 C47.50448013 8.90221436 47.51564362 10.06611694 47.52714539 11.26528931 C47.52930557 12.54850067 47.53146576 13.83171204 47.53369141 15.15380859 C47.54298584 16.51369832 47.55315378 17.87358231 47.56413269 19.23345947 C47.59150159 22.93155802 47.60660238 26.62961834 47.61956072 30.32779169 C47.63516124 34.19024208 47.6619612 38.05261403 47.68759155 41.91500854 C47.73443404 49.23185136 47.77115159 56.54870884 47.80426443 63.86562526 C47.84244726 72.19446117 47.89186741 80.52321841 47.94224858 88.85198808 C48.04564974 105.98753155 48.13488343 123.12312051 48.21484375 140.25878906 C49.62378583 138.53750685 51.03261824 136.81613487 52.44140625 135.09472656 C53.22596191 134.13614746 54.01051758 133.17756836 54.81884766 132.18994141 C57.07959035 129.4242519 59.33544828 126.65465294 61.58984375 123.88378906 C64.9419381 119.7828848 68.34641132 115.73105146 71.77734375 111.69628906 C75.58287206 107.21762535 79.30801029 102.6884295 82.96484375 98.08691406 C85.99379042 94.27969637 89.03669305 90.4841172 92.08984375 86.69628906 C92.66202637 85.98045654 93.23420898 85.26462402 93.82373047 84.52709961 C94.63221436 83.52610229 94.63221436 83.52610229 95.45703125 82.50488281 C95.94026855 81.90345459 96.42350586 81.30202637 96.92138672 80.68237305 C98.73136068 78.69030847 99.8422423 78.28030967 102.52990723 78.12507629 C103.49650269 78.1212645 104.46309814 78.1174527 105.45898438 78.11352539 C106.55351929 78.10714554 107.6480542 78.10076569 108.77575684 78.0941925 C109.96221802 78.09307968 111.1486792 78.09196686 112.37109375 78.09082031 C113.58430298 78.08749191 114.79751221 78.08416351 116.04748535 78.08073425 C118.61645121 78.07566431 121.18542367 78.07332595 123.75439453 78.07348633 C127.69835163 78.07129821 131.64202988 78.05313841 135.5859375 78.03417969 C138.07682196 78.0312462 140.56770775 78.0292611 143.05859375 78.02832031 C144.24505493 78.0211348 145.43151611 78.01394928 146.65393066 78.00654602 C148.29573303 78.01116096 148.29573303 78.01116096 149.97070312 78.01586914 C150.93729858 78.01444412 151.90389404 78.0130191 152.89978027 78.0115509 C155.21484375 78.25878906 155.21484375 78.25878906 157.21484375 80.25878906 C156.97848517 84.67573997 155.21391783 86.77016702 152.21484375 89.88378906 C148.94330586 93.37205344 145.82886556 96.90020948 142.83984375 100.63378906 C139.15847686 105.18739619 135.28709902 109.49461423 131.30126953 113.77783203 C128.31071734 117.0105511 125.4771269 120.32566572 122.71484375 123.75878906 C118.61330948 128.85263001 114.25607148 133.65006333 109.8125 138.44238281 C106.54257869 141.98766592 103.36312184 145.60549708 100.21484375 149.25878906 C101.82194092 154.13680164 104.6107816 157.89484609 107.58984375 162.00878906 C108.68246208 163.53601091 109.7749052 165.06335811 110.8671875 166.59082031 C111.42519043 167.3676416 111.98319336 168.14446289 112.55810547 168.94482422 C114.61758293 171.82129451 116.6525742 174.7144845 118.68603516 177.609375 C123.85040375 184.95952864 129.08840413 192.25392547 134.35913086 199.52807617 C138.51141544 205.26572221 142.60883301 211.03996724 146.67333984 216.84008789 C149.33555661 220.63019039 152.03447308 224.38774057 154.78515625 228.11425781 C155.378125 228.92121094 155.97109375 229.72816406 156.58203125 230.55957031 C157.72391347 232.10999262 158.87201974 233.65585705 160.02734375 235.19628906 C162.90146539 239.10709637 164.99515164 242.47789715 166.21484375 247.25878906 C164.52719925 249.34837825 163.64111641 250.18577213 160.9515686 250.64646912 C160.06730194 250.6518721 159.18303528 250.65727509 158.27197266 250.6628418 C157.26727936 250.67552597 156.26258606 250.68821014 155.22744751 250.70127869 C154.14305389 250.69834305 153.05866028 250.69540741 151.94140625 250.69238281 C150.82551117 250.69762466 149.70961609 250.70286652 148.55990601 250.70826721 C146.19782341 250.71469472 143.83570884 250.71334105 141.47363281 250.70483398 C137.86074656 250.69633822 134.24944814 250.72505456 130.63671875 250.75683594 C128.34244839 250.75844836 126.04817523 250.75786963 123.75390625 250.75488281 C122.6735611 250.76611679 121.59321594 250.77735077 120.48013306 250.78892517 C112.98025735 250.71933454 112.98025735 250.71933454 109.13232422 248.40405273 C106.78325978 245.77593595 104.69678285 243.04179428 102.71484375 240.13378906 C101.83666284 238.87547004 100.95771847 237.61768358 100.078125 236.36035156 C99.61486816 235.69422852 99.15161133 235.02810547 98.67431641 234.34179688 C96.12392643 230.70179566 93.51023988 227.10769354 90.90234375 223.50878906 C89.80328741 221.98802655 88.70433027 220.46719235 87.60546875 218.94628906 C85.28457585 215.73648607 82.96118928 212.52850194 80.63671875 209.32128906 C80.05317627 208.51530273 79.46963379 207.70931641 78.8684082 206.87890625 C77.75591854 205.34240752 76.64252978 203.80655921 75.52807617 202.27148438 C72.66855336 198.32060657 69.8891013 194.33751281 67.21484375 190.25878906 C64.12037399 191.61403435 62.23768735 193.06676817 60.05078125 195.62988281 C59.48617187 196.28666016 58.9215625 196.9434375 58.33984375 197.62011719 C57.76234375 198.30525391 57.18484375 198.99039063 56.58984375 199.69628906 C55.71199219 200.71819336 55.71199219 200.71819336 54.81640625 201.76074219 C49.94114123 207.46905134 47.93166066 210.87232753 47.94140625 218.54003906 C47.92112305 220.20280628 47.90027238 221.86556666 47.87890625 223.52832031 C47.85627046 226.14865911 47.83982161 228.76872794 47.83398438 231.38916016 C47.8244822 233.91911521 47.79074111 236.44785524 47.75390625 238.97753906 C47.75895172 239.76197388 47.76399719 240.54640869 47.76919556 241.35461426 C47.67017109 246.8112611 47.67017109 246.8112611 45.47776794 248.96611023 C42.89970178 250.4388116 41.4423685 250.633375 38.49389648 250.63110352 C37.56290634 250.63733231 36.6319162 250.6435611 35.67271423 250.64997864 C34.67470291 250.64076889 33.67669159 250.63155914 32.6484375 250.62207031 C31.6179982 250.62256882 30.5875589 250.62306732 29.52589417 250.62358093 C27.34968129 250.62124228 25.17346561 250.6115261 22.99731445 250.5949707 C19.66137596 250.57135301 16.32623537 250.57441466 12.99023438 250.58105469 C10.87629731 250.57547871 8.76236361 250.56836933 6.6484375 250.55957031 C5.64840195 250.56048172 4.64836639 250.56139313 3.61802673 250.56233215 C2.69018875 250.55280014 1.76235077 250.54326813 0.80639648 250.53344727 C-0.00982681 250.52883987 -0.82605011 250.52423248 -1.66700745 250.51948547 C-3.78515625 250.25878906 -3.78515625 250.25878906 -6.78515625 248.25878906 C-7.16005307 246.43533421 -7.16005307 246.43533421 -7.15988636 244.17640686 C-7.1670929 243.31674285 -7.17429945 242.45707884 -7.18172437 241.5713644 C-7.17435008 240.62138104 -7.1669758 239.67139769 -7.15937805 238.69262695 C-7.16335246 237.68777535 -7.16732686 236.68292376 -7.17142171 235.64762211 C-7.1810958 232.25875536 -7.16919566 228.87030078 -7.1574707 225.48144531 C-7.15989698 223.06077925 -7.16361469 220.64011419 -7.16853333 218.2194519 C-7.17698719 212.31410502 -7.1714074 206.4088692 -7.15927038 200.50353789 C-7.14567166 193.6318658 -7.14728635 186.76022299 -7.14940371 179.88854086 C-7.15259596 167.63074695 -7.1409124 155.37301108 -7.12133789 143.11523438 C-7.10233272 131.21091951 -7.09525004 119.3066727 -7.10083008 107.40234375 C-7.106883 94.4507958 -7.10671976 81.49927781 -7.09534425 68.54773235 C-7.09413691 67.16763497 -7.09293092 65.78753758 -7.0917263 64.40744019 C-7.090821 63.3887906 -7.090821 63.3887906 -7.0898974 62.34956223 C-7.08601221 57.55547661 -7.08641419 52.76140211 -7.08831215 47.96731567 C-7.09065145 41.51923885 -7.0821315 35.07123084 -7.06625175 28.62317276 C-7.06199345 26.25033049 -7.06116865 23.87747933 -7.06394196 21.50463486 C-7.06714218 18.27797582 -7.0581367 15.05158284 -7.04585266 11.82495117 C-7.04963198 10.87496781 -7.05341131 9.92498446 -7.05730516 8.94621372 C-7.05147296 8.08654971 -7.04564077 7.2268857 -7.03963184 6.34117126 C-7.03876507 5.59572524 -7.03789829 4.85027922 -7.03700525 4.08224392 C-6.44974179 -0.16970236 -3.57423071 0.00647922 0 0 Z " fill="#3539AA" transform="translate(784.78515625,266.7412109375)"/>
<path d="M0 0 C3.95796796 3.38508857 7.51270504 7.13532242 11 11 C11.10957031 9.95199219 11.21914063 8.90398438 11.33203125 7.82421875 C11.49150574 6.44523349 11.65169966 5.06633129 11.8125 3.6875 C11.91788086 2.65206055 11.91788086 2.65206055 12.02539062 1.59570312 C12.64360985 -3.52315207 12.64360985 -3.52315207 14.26916504 -5.69813538 C16.462036 -7.34752495 17.69628106 -7.38524871 20.42382812 -7.40405273 C21.76036438 -7.42307899 21.76036438 -7.42307899 23.12390137 -7.44248962 C24.56303894 -7.43808617 24.56303894 -7.43808617 26.03125 -7.43359375 C27.51244324 -7.44145653 27.51244324 -7.44145653 29.02355957 -7.44947815 C31.1115627 -7.45590236 33.19960199 -7.45455621 35.28759766 -7.44604492 C38.48795762 -7.43753203 41.6865351 -7.46629609 44.88671875 -7.49804688 C46.91406196 -7.49965883 48.94140835 -7.49908146 50.96875 -7.49609375 C51.92817505 -7.50732773 52.8876001 -7.51856171 53.87609863 -7.53013611 C55.21263489 -7.51606468 55.21263489 -7.51606468 56.57617188 -7.50170898 C57.35988159 -7.50154282 58.14359131 -7.50137665 58.9510498 -7.50120544 C61 -7 61 -7 62.60424995 -5.3838129 C64.45266293 -2.22689329 64.37748898 -0.0096864 64.38095093 3.64221191 C64.3856309 4.30842638 64.39031087 4.97464086 64.39513266 5.66104364 C64.407093 7.8920705 64.39762185 10.12248427 64.38818359 12.35351562 C64.39224885 13.95351012 64.39759047 15.5535018 64.40411377 17.15348816 C64.41779869 21.49849254 64.4124839 25.8432834 64.40297651 30.18829155 C64.395386 34.73348444 64.40242383 39.27865894 64.40713501 43.82385254 C64.41259434 51.45698329 64.40539631 59.09002699 64.39111328 66.72314453 C64.37478642 75.55051795 64.3800748 84.37768351 64.3965925 93.2050519 C64.41020232 100.78137127 64.41212949 108.35762803 64.40427649 115.93395567 C64.3995972 120.46014024 64.39898214 124.98622708 64.40888596 129.5124054 C64.41754603 133.76747185 64.41155138 138.02227006 64.39420319 142.27730751 C64.3902332 143.83980679 64.39138115 145.40232861 64.39799118 146.96481895 C64.40617687 149.09611439 64.3959223 151.22654773 64.38095093 153.35778809 C64.37981985 154.55092369 64.37868877 155.7440593 64.37752342 156.97335052 C63.96343471 160.2931482 63.35848689 161.66466121 61 164 C57.04924961 165.3169168 53.25300638 165.18237282 49.1328125 165.203125 C48.26107391 165.20882507 47.38933533 165.21452515 46.49118042 165.22039795 C44.64696464 165.22984183 42.80273203 165.2363795 40.95849609 165.24023438 C38.14260314 165.24993933 35.32744041 165.28096786 32.51171875 165.3125 C30.71875433 165.31903043 28.92578469 165.32428075 27.1328125 165.328125 C25.87321213 165.3466452 25.87321213 165.3466452 24.58816528 165.36553955 C19.95961622 165.34797345 16.66418267 165.16536041 13 162 C12.29698793 159.11972692 11.898672 156.72565586 11.6875 153.8125 C11.61466797 153.06291016 11.54183594 152.31332031 11.46679688 151.54101562 C11.29050909 149.69587013 11.14248587 147.84806305 11 146 C9.98292969 147.08667969 9.98292969 147.08667969 8.9453125 148.1953125 C-3.88924889 161.65123888 -18.48731483 167.95914887 -37.02734375 169.203125 C-50.65253986 169.42259125 -63.7853687 167.19167084 -76 161 C-76.99515625 160.49597656 -77.9903125 159.99195313 -79.015625 159.47265625 C-98.95511983 148.60818791 -111.77910621 129.51022552 -118.18603516 108.03100586 C-125.27496514 81.63356562 -122.31746983 52.0570232 -109.375 27.9765625 C-97.62115962 8.55007631 -80.62779326 -3.89273516 -59 -10 C-39.3895317 -14.529244 -16.59679867 -11.51102052 0 0 Z M-58.265625 49.2265625 C-66.53616832 58.87552971 -69.32643358 69.39150316 -69 82 C-67.59053751 94.67160986 -63.19031926 104.10152782 -53.375 112.30859375 C-43.58010362 119.28423541 -32.66983614 120.04534363 -21 119 C-11.39693131 116.83986916 -3.1239758 111.72651152 3 104 C10.39684275 91.30857508 11.57104762 78.27180028 8.03125 64.2109375 C4.89340728 54.44083629 -1.42379499 46.68909061 -10.40234375 41.65234375 C-26.19506585 34.32094697 -45.7107206 36.88812196 -58.265625 49.2265625 Z " fill="#3539AA" transform="translate(500,553)"/>
<path d="M0 0 C0.6688623 0.23605957 1.33772461 0.47211914 2.02685547 0.71533203 C25.1181864 9.19217328 41.50753014 25.52133915 52.3125 47.375 C56.63027569 57.18594588 59.57121684 68.26177823 60 79 C60.03996094 79.969375 60.07992187 80.93875 60.12109375 81.9375 C60.66301369 108.45969939 51.54548495 131.80754092 33.375 151.125 C17.87646735 166.02467127 -2.48955868 174.81296896 -24 176 C-25.37285156 176.07927734 -25.37285156 176.07927734 -26.7734375 176.16015625 C-51.76451218 176.88407907 -74.26860645 168.80293337 -93.30859375 152.58984375 C-111.71328458 134.87966955 -120.69109614 111.09247042 -121.3125 85.75 C-120.86222642 60.1903525 -112.13576379 38.1675252 -94 20 C-93.31550781 19.30390625 -92.63101562 18.6078125 -91.92578125 17.890625 C-68.46466741 -4.48633386 -30.19213611 -10.73172891 0 0 Z M-61 59 C-68.59874039 70.61683766 -70.11527915 82.44368542 -68 96 C-65.44051838 106.37054209 -59.86893245 114.93746402 -51 121 C-40.53122147 126.63980668 -29.81122758 127.59189889 -18.3125 124.4375 C-7.51193213 120.74256889 -1.11784449 114.07420488 3.99609375 104.046875 C8.51358982 94.10406069 8.5965059 80.9575194 5.4375 70.5625 C1.29458808 60.00242031 -4.81755106 52.73131424 -15.17578125 48.0078125 C-31.77767729 41.4420909 -49.17334089 45.59936778 -61 59 Z " fill="#3539AA" transform="translate(551,346)"/>
<path d="M0 0 C14.84167975 11.28514819 14.84167975 11.28514819 17.03515625 19.1796875 C17.16796875 22.05859375 17.16796875 22.05859375 15.23046875 24.99609375 C12.55793563 27.83611533 9.59925584 30.33074857 6.62890625 32.8515625 C2.77773264 36.30539281 -0.82167638 40.00758791 -4.43945312 43.70336914 C-9.46654598 48.80779033 -9.46654598 48.80779033 -13.89453125 49.62109375 C-19.0455632 48.88523204 -20.91011753 46.61050266 -24.578125 43.09765625 C-31.84042049 36.52760729 -41.58826989 34.54947966 -51.16796875 34.81640625 C-61.74455327 35.77791393 -71.11096127 39.32562966 -78.7109375 46.94140625 C-86.1357399 56.13401874 -88.76793409 67.44337103 -87.83203125 79.05859375 C-85.71645746 90.24313459 -81.23021047 100.75060643 -71.73046875 107.56640625 C-61.42902147 113.64535217 -50.53402049 115.79680517 -38.72265625 113.4375 C-30.24462189 110.9665703 -23.06934438 106.29590688 -16.83203125 100.05859375 C-14.20703125 99.49609375 -14.20703125 99.49609375 -10.83203125 100.05859375 C-4.68280919 104.12219345 0.31978093 110.18424228 5.47265625 115.39453125 C8.9025185 118.78462698 12.49608388 121.93650983 16.16796875 125.05859375 C17.16796875 126.05859375 17.16796875 126.05859375 17.42578125 128.828125 C16.87542733 135.72422639 10.99870358 140.50472347 6.046875 144.90234375 C-7.87507703 156.67827191 -25.45326823 164.27512961 -43.83203125 165.05859375 C-44.67121094 165.11015625 -45.51039063 165.16171875 -46.375 165.21484375 C-70.32570796 166.00769477 -93.90380711 158.03155854 -111.83203125 142.05859375 C-112.5796875 141.40503906 -113.32734375 140.75148438 -114.09765625 140.078125 C-130.37848805 124.90734991 -139.66897293 102.97906076 -140.95825195 80.89672852 C-141.85206663 55.17472837 -135.44580283 32.47008795 -118.45703125 12.74609375 C-87.89111861 -19.45351422 -36.74769204 -25.19117647 0 0 Z " fill="#3539AA" transform="translate(755.83203125,356.94140625)"/>
</svg>
