<?xml version="1.0" standalone="no"?>
<!DOCTYPE svg PUBLIC "-//W3C//DTD SVG 20010904//EN"
 "http://www.w3.org/TR/2001/REC-SVG-20010904/DTD/svg10.dtd">
<svg version="1.0" xmlns="http://www.w3.org/2000/svg"
 width="1002.000000pt" height="1001.000000pt" viewBox="0 0 1002.000000 1001.000000"
 preserveAspectRatio="xMidYMid meet">

<g transform="translate(0.000000,1001.000000) scale(0.100000,-0.100000)"
fill="#000000" stroke="none">
<path d="M3736 7324 c-14 -14 -16 -71 -16 -476 l0 -460 -40 36 c-107 97 -228
150 -376 165 -339 35 -632 -126 -785 -431 -105 -210 -131 -486 -69 -734 27
-106 106 -264 175 -346 145 -174 351 -268 590 -268 202 0 336 51 461 176 l72
71 7 -91 c4 -50 11 -97 17 -103 15 -18 449 -18 466 -1 9 9 12 297 12 1235 0
1198 0 1223 -19 1233 -12 6 -110 10 -250 10 -195 0 -232 -2 -245 -16z m-234
-1246 c191 -88 273 -321 194 -546 -33 -92 -107 -170 -202 -214 -41 -18 -67
-22 -159 -22 -132 -1 -192 19 -272 89 -196 172 -166 543 54 672 74 43 120 53
228 50 83 -2 110 -7 157 -29z"/>
<path d="M7797 7322 c-16 -17 -17 -117 -17 -1230 0 -1087 2 -1212 16 -1226 13
-14 50 -16 254 -16 235 0 239 0 254 22 13 18 16 55 16 200 l0 177 91 105 c50
58 94 106 98 106 4 0 103 -132 220 -294 116 -162 218 -299 225 -305 9 -8 96
-11 277 -9 l264 3 -1 25 c0 16 -114 184 -326 482 -179 251 -328 461 -332 466
-3 6 124 160 284 344 204 233 290 339 288 353 -3 19 -12 20 -268 23 -146 1
-274 0 -285 -2 -11 -3 -135 -145 -275 -316 l-255 -310 -5 696 c-5 674 -6 696
-24 710 -16 11 -67 14 -251 14 -212 0 -233 -2 -248 -18z"/>
<path d="M5065 6580 c-78 -12 -217 -56 -280 -87 -215 -109 -375 -308 -447
-559 -20 -69 -23 -101 -22 -244 0 -149 3 -173 27 -253 77 -252 225 -430 454
-546 213 -107 511 -120 741 -31 222 86 402 260 492 476 135 324 71 713 -158
964 -112 122 -272 218 -437 260 -92 24 -279 34 -370 20z m305 -513 c163 -78
247 -267 207 -467 -38 -196 -177 -312 -372 -312 -135 -1 -228 44 -306 146 -58
76 -74 134 -74 266 0 108 2 119 31 180 74 157 184 222 364 217 78 -3 105 -8
150 -30z"/>
<path d="M6911 6579 c-383 -49 -680 -339 -742 -724 -17 -106 -7 -308 21 -404
90 -318 319 -540 645 -627 55 -14 104 -18 225 -18 139 1 164 3 243 27 100 31
148 53 227 107 104 71 206 184 196 217 -3 10 -67 75 -141 146 -100 94 -141
127 -160 127 -15 0 -48 -17 -77 -41 -111 -87 -215 -118 -335 -99 -141 23 -239
93 -300 217 -33 67 -38 86 -41 168 -5 112 13 187 64 262 70 102 171 155 311
161 116 5 183 -14 266 -77 33 -25 68 -52 78 -59 31 -23 61 -3 198 130 102 99
131 134 131 154 0 38 -145 177 -240 231 -169 95 -360 129 -569 102z"/>
<path d="M1855 5852 c-359 -108 -671 -559 -900 -1296 -154 -499 -224 -918
-195 -1175 21 -194 79 -321 192 -427 159 -150 409 -185 649 -93 237 91 426
292 580 614 33 68 59 128 59 134 0 14 6 14 55 -3 l40 -14 -3 -129 c-5 -218 45
-384 152 -500 93 -102 199 -145 356 -147 84 -1 120 4 180 22 165 52 326 157
480 312 113 114 261 312 284 380 4 10 -28 38 -100 90 -58 41 -109 76 -113 78
-4 1 -41 -41 -82 -95 -239 -316 -464 -466 -614 -409 -84 33 -125 116 -125 255
0 117 -1 115 98 140 301 76 574 300 668 547 35 92 44 228 20 305 -86 271 -449
307 -719 70 -130 -114 -242 -268 -336 -463 -31 -65 -62 -118 -69 -118 -7 0
-28 6 -46 14 -32 13 -33 15 -29 63 6 62 -11 176 -37 246 -72 191 -280 245
-429 111 -71 -64 -95 -119 -95 -224 -1 -72 3 -94 26 -142 14 -31 45 -77 69
-103 l43 -46 -23 -71 c-36 -112 -134 -295 -205 -385 -102 -128 -214 -202 -308
-203 -60 0 -95 13 -136 53 -53 51 -74 123 -80 269 -5 140 6 237 44 400 l26
107 94 45 c222 105 508 327 689 535 272 313 404 613 393 896 -3 90 -7 109 -36
167 -39 79 -92 130 -180 171 -58 27 -78 31 -171 34 -80 2 -121 -2 -166 -15z
m183 -401 c7 -153 -98 -362 -297 -594 -90 -105 -316 -329 -351 -347 -18 -10
-19 -9 -6 27 81 230 259 606 351 743 63 95 163 201 209 225 17 8 45 14 61 13
30 -3 30 -4 33 -67z m1165 -1135 c26 -66 -124 -251 -261 -324 l-63 -34 39 79
c69 136 169 253 243 282 33 13 36 13 42 -3z"/>
<path d="M4475 4581 c-321 -52 -561 -282 -651 -626 -23 -85 -27 -122 -27 -250
-1 -87 4 -175 11 -210 63 -295 210 -502 437 -614 106 -53 178 -71 305 -78 209
-11 367 44 500 174 41 40 76 73 77 73 2 0 3 -38 3 -85 0 -129 -9 -125 253
-125 195 0 215 2 230 18 16 17 17 90 17 840 l0 821 -22 15 c-19 13 -58 16
-230 16 -256 0 -248 4 -248 -125 0 -47 -2 -85 -4 -85 -3 0 -29 25 -58 57 -114
121 -252 181 -437 188 -58 2 -129 0 -156 -4z m311 -482 c151 -28 256 -123 299
-273 24 -82 16 -227 -15 -311 -32 -83 -122 -173 -204 -204 -271 -101 -536 62
-553 341 -9 144 28 257 111 340 95 95 222 133 362 107z"/>
<path d="M6603 4575 c-127 -28 -230 -93 -308 -197 -51 -68 -50 -69 -59 67 -5
59 -11 83 -23 93 -12 9 -76 12 -233 12 -179 0 -219 -3 -238 -16 l-22 -15 0
-824 c0 -735 2 -825 16 -839 23 -24 475 -24 498 0 14 14 16 72 16 488 0 298 4
494 11 531 28 154 109 225 253 225 137 -1 211 -78 236 -246 5 -38 10 -277 10
-531 0 -447 1 -463 19 -473 12 -6 110 -10 249 -10 201 0 231 2 243 17 11 13
15 115 19 532 5 512 5 516 28 566 47 103 113 145 227 145 148 0 222 -76 245
-252 5 -40 10 -279 10 -530 0 -442 1 -458 19 -468 12 -6 109 -10 245 -10 213
0 227 1 246 20 19 19 20 33 20 523 0 568 -7 680 -51 811 -30 90 -94 199 -146
248 -46 43 -143 97 -218 121 -84 26 -257 30 -345 8 -128 -31 -257 -120 -331
-228 l-30 -43 -40 59 c-121 181 -340 265 -566 216z"/>
<path d="M4102 2624 c-37 -26 -26 -63 28 -94 37 -22 45 -31 45 -56 0 -26 -4
-29 -33 -32 -18 -2 -40 2 -48 9 -17 14 -19 -2 -2 -19 17 -17 74 -15 92 4 9 8
16 28 16 44 0 23 -9 34 -50 59 -33 20 -50 38 -50 51 0 24 40 36 69 20 13 -7
21 -7 21 -1 0 12 -32 31 -52 31 -8 0 -24 -7 -36 -16z"/>
<path d="M5926 2631 c-4 -5 -2 -12 3 -15 5 -4 12 -2 15 3 4 5 2 12 -3 15 -5 4
-12 2 -15 -3z"/>
<path d="M6150 2530 c0 -67 4 -110 10 -110 6 0 10 24 10 53 0 40 5 58 18 70
41 37 72 7 72 -69 0 -30 5 -54 10 -54 13 0 13 106 0 131 -12 22 -68 27 -88 7
-9 -9 -12 -2 -12 35 0 26 -4 47 -10 47 -6 0 -10 -43 -10 -110z"/>
<path d="M8230 2631 c0 -6 5 -13 10 -16 6 -3 10 1 10 9 0 9 -4 16 -10 16 -5 0
-10 -4 -10 -9z"/>
<path d="M4250 2548 c-26 -28 -26 -68 1 -102 18 -23 28 -27 62 -24 23 2 42 9
45 16 3 11 0 12 -17 3 -26 -14 -69 -4 -81 19 -15 29 -14 30 50 30 56 0 60 1
60 23 0 54 -80 77 -120 35z m90 -8 c29 -29 17 -40 -41 -40 -55 0 -66 17 -27
44 30 21 44 20 68 -4z"/>
<path d="M4410 2507 c0 -69 10 -87 50 -87 14 0 31 5 38 12 9 9 12 9 12 0 0 -7
5 -12 10 -12 6 0 10 32 10 75 0 91 -18 101 -22 13 l-3 -63 -35 0 -35 0 -3 63
c-4 81 -22 81 -22 -1z"/>
<path d="M4630 2498 c0 -46 4 -78 10 -78 6 0 10 27 10 60 0 49 3 61 20 70 14
8 26 8 40 0 17 -9 20 -21 20 -70 0 -33 4 -60 10 -60 14 0 13 123 -2 138 -15
15 -75 16 -84 1 -4 -8 -9 -7 -15 2 -5 9 -9 -16 -9 -63z"/>
<path d="M4807 2552 c-24 -26 -22 -87 3 -112 28 -28 75 -26 105 5 30 30 32 64
4 99 -25 32 -86 37 -112 8z m93 -12 c11 -11 20 -30 20 -42 0 -53 -74 -79 -104
-36 -22 31 -20 45 9 73 29 30 49 31 75 5z"/>
<path d="M4971 2518 c11 -29 25 -63 30 -75 5 -13 13 -23 18 -23 4 0 22 34 39
75 17 41 26 75 21 75 -5 0 -13 -10 -18 -22 -5 -13 -16 -41 -26 -63 l-17 -40
-23 60 c-12 32 -28 61 -34 63 -7 2 -3 -18 10 -50z"/>
<path d="M5121 2544 c-28 -35 -26 -69 4 -99 49 -50 125 -20 125 50 0 72 -86
104 -129 49z m95 -9 c38 -38 16 -95 -37 -95 -55 0 -79 60 -39 100 27 27 46 25
76 -5z"/>
<path d="M5350 2543 c-54 -69 37 -161 106 -108 17 14 16 14 -24 9 -33 -5 -47
-3 -62 11 -26 23 -25 60 1 86 21 21 40 21 84 3 18 -7 18 -6 6 9 -8 11 -28 17
-51 17 -30 0 -43 -6 -60 -27z"/>
<path d="M5506 2548 c-22 -31 -20 -84 4 -108 22 -22 60 -26 91 -10 13 7 19 7
19 0 0 -5 5 -10 10 -10 6 0 10 32 10 75 0 43 -4 75 -10 75 -5 0 -10 -5 -10
-12 0 -9 -3 -9 -12 0 -21 21 -85 15 -102 -10z m94 -8 c39 -39 19 -100 -33
-100 -42 0 -57 15 -57 56 0 23 7 38 22 48 30 21 44 20 68 -4z"/>
<path d="M5680 2493 c0 -88 18 -98 22 -12 2 45 8 65 20 72 30 19 48 -8 48 -74
0 -33 4 -59 10 -59 6 0 10 24 10 54 0 52 16 86 40 86 24 0 40 -34 40 -86 0
-30 5 -54 10 -54 11 0 12 81 1 120 -8 28 -52 40 -77 19 -10 -8 -17 -9 -28 0
-7 6 -32 10 -55 9 l-41 -1 0 -74z"/>
<path d="M5930 2495 c0 -43 4 -75 10 -75 6 0 10 32 10 75 0 43 -4 75 -10 75
-6 0 -10 -32 -10 -75z"/>
<path d="M5990 2493 c0 -42 4 -73 10 -73 6 0 10 27 10 60 0 55 2 62 25 72 39
18 55 -3 55 -73 0 -33 4 -59 10 -59 16 0 12 126 -4 139 -8 7 -35 11 -60 9
l-46 -3 0 -72z"/>
<path d="M6331 2544 c-28 -35 -26 -69 4 -99 51 -52 125 -20 125 53 0 48 -24
72 -73 72 -27 0 -41 -7 -56 -26z m95 -9 c38 -38 16 -95 -37 -95 -55 0 -79 60
-39 100 27 27 46 25 76 -5z"/>
<path d="M6560 2543 c-54 -69 36 -161 106 -108 17 13 15 14 -27 9 -41 -6 -48
-4 -63 17 -22 31 -20 55 5 80 21 21 40 21 84 3 18 -7 18 -6 6 9 -8 11 -28 17
-51 17 -30 0 -43 -6 -60 -27z"/>
<path d="M6720 2550 c-12 -12 -20 -33 -20 -55 0 -46 29 -75 74 -75 64 0 99 81
56 128 -27 29 -83 29 -110 2z m90 -10 c39 -39 19 -100 -33 -100 -42 0 -57 15
-57 56 0 23 7 38 22 48 30 21 44 20 68 -4z"/>
<path d="M6880 2493 c0 -42 4 -73 10 -73 6 0 10 24 10 54 0 52 16 86 40 86 24
0 40 -34 40 -86 0 -30 5 -54 10 -54 6 0 10 26 10 59 0 66 18 93 48 74 12 -7
18 -27 20 -72 2 -33 7 -61 12 -61 13 0 13 106 0 131 -12 21 -64 27 -75 9 -5
-8 -11 -8 -19 -1 -7 6 -34 10 -59 9 l-47 -2 0 -73z"/>
<path d="M7141 2544 c-28 -35 -26 -69 4 -100 20 -19 34 -24 62 -22 20 2 38 9
41 16 3 11 0 12 -17 3 -26 -14 -69 -4 -81 19 -16 29 -14 30 56 30 l66 0 -6 28
c-14 57 -88 73 -125 26z m91 -1 c33 -30 23 -43 -37 -43 -59 0 -67 8 -35 40 24
24 47 25 72 3z"/>
<path d="M7310 2543 c-29 -37 -20 -76 25 -120 39 -38 43 -49 18 -56 -13 -4
-12 -5 5 -6 24 -1 44 30 24 37 -16 5 -15 22 1 22 7 0 22 7 33 15 17 14 16 14
-24 9 -33 -5 -47 -3 -62 11 -26 23 -25 60 1 86 21 21 40 21 84 3 18 -7 18 -6
6 9 -8 11 -28 17 -51 17 -30 0 -43 -6 -60 -27z"/>
<path d="M7466 2548 c-22 -31 -20 -84 4 -108 22 -22 60 -26 91 -10 13 7 19 7
19 0 0 -5 5 -10 10 -10 6 0 10 32 10 75 0 43 -4 75 -10 75 -5 0 -10 -5 -10
-12 0 -9 -3 -9 -12 0 -21 21 -85 15 -102 -10z m94 -8 c39 -39 19 -100 -33
-100 -42 0 -57 15 -57 56 0 23 7 38 22 48 30 21 44 20 68 -4z"/>
<path d="M7707 2552 c-26 -28 -22 -97 5 -116 27 -19 69 -21 87 -3 11 10 14 10
18 0 12 -34 23 -5 23 62 0 43 -4 75 -10 75 -5 0 -10 -5 -10 -10 0 -7 -6 -7
-19 0 -30 16 -76 12 -94 -8z m93 -12 c11 -11 20 -30 20 -42 0 -53 -74 -79
-104 -36 -22 31 -20 45 9 73 29 30 49 31 75 5z"/>
<path d="M7904 2562 c-16 -10 -34 -48 -34 -70 0 -35 38 -72 74 -72 17 0 37 5
44 12 9 9 12 4 12 -24 0 -20 5 -40 10 -43 6 -4 10 32 10 99 0 64 -4 106 -10
106 -5 0 -10 -5 -10 -12 0 -9 -3 -9 -12 0 -13 13 -67 16 -84 4z m74 -18 c15
-10 22 -25 22 -48 0 -41 -15 -56 -57 -56 -52 0 -72 61 -33 100 24 24 38 25 68
4z"/>
<path d="M8060 2523 c0 -64 18 -97 53 -101 16 -2 35 2 43 9 10 8 14 8 14 0 0
-6 5 -11 10 -11 6 0 10 32 10 75 0 43 -4 75 -10 75 -5 0 -10 -24 -10 -53 0
-57 -12 -77 -45 -77 -33 0 -45 20 -45 77 0 29 -4 53 -10 53 -5 0 -10 -21 -10
-47z"/>
<path d="M8230 2495 c0 -43 4 -75 10 -75 6 0 10 32 10 75 0 43 -4 75 -10 75
-6 0 -10 -32 -10 -75z"/>
<path d="M8286 2443 c-11 -11 -6 -23 9 -23 8 0 15 4 15 9 0 13 -16 22 -24 14z"/>
</g>
</svg>
